# xmcd
#
# Track frame offsets: 
#        150
#        15600
#        30600
#        41250
#        57150
#        73200
#
# Disc length: 1156 seconds
#
# Revision: 0
# Processed by: cddbd v1.5.2PL0 Copyright (c) Steve Scherf et al.
# Submitted via: ExactAudioCopy v1.1
#
DISCID=47048206
DTITLE=The Ole Fashion - The Ole Fashion
DYEAR=2011
DGENRE=Country
TTITLE0=Hipster Queen
TTITLE1=Stay
TTITLE2=Cried All Night
TTITLE3=Deep Deep Roots
TTITLE4=Western Road
TTITLE5=I Never Meant To
EXTD=
EXTT0=
EXTT1=
EXTT2=
EXTT3=
EXTT4=
EXTT5=
PLAYORDER=
